<?xml version="1.0" encoding="iso-8859-1"?>
<!-- Uploaded to: SVG Repo, www.svgrepo.com, Generator: SVG Repo Mixer Tools -->
<svg fill="#000000" height="800px" width="800px" version="1.1" id="Layer_1" xmlns="http://www.w3.org/2000/svg" xmlns:xlink="http://www.w3.org/1999/xlink" 
	 viewBox="0 0 512 512" xml:space="preserve">
<g>
	<g>
		<path d="M412.87,221.52l9.402,9.402l71.123-71.123l-9.402-9.402l12.719-12.719c20.368-20.368,20.368-53.509,0-73.876
			L448.21,15.301C438.344,5.434,425.226,0,411.273,0c-13.953,0-27.072,5.434-36.938,15.301L361.616,28.02l-9.402-9.402
			l-71.123,71.123l9.402,9.402l-24.345,24.345L143.051,0.392L0.426,143.016l123.096,123.096l-50.533,50.534
			c-0.002,0.002-0.004,0.006-0.008,0.008l-27.839,27.839L0.012,512l167.506-45.129l78.381-78.382l123.097,123.097l142.624-142.625
			L388.524,245.865L412.87,221.52z M364.919,222.26l-10.889-10.889l-14.892-14.892l24.345-24.345l25.781,25.781L364.919,222.26z
			 M397.939,38.906c3.561-3.561,8.296-5.523,13.332-5.523c5.036,0,9.771,1.962,13.332,5.523l48.501,48.501
			c7.351,7.351,7.351,19.313,0,26.664l-12.719,12.719L385.22,51.625L397.939,38.906z M352.214,65.83l93.969,93.969l-23.912,23.911
			l-93.969-93.969L352.214,65.83z M314.099,122.748l25.78,25.781l-24.345,24.345l-25.781-25.781L314.099,122.748z M96.587,340.26
			l50.541-50.541l10.889,10.889l14.892,14.891l-50.536,50.534c-3.443,3.443-8.02,5.339-12.889,5.339
			c-4.868,0-9.446-1.896-12.89-5.339C89.488,358.928,89.487,347.367,96.587,340.26z M47.335,464.677l4.839-17.961l13.122,13.122
			L47.335,464.677z M102.488,449.818l-40.294-40.294l6.63-24.61c1.281,1.636,2.658,3.218,4.164,4.724
			c9.239,9.239,21.367,14.536,34.346,15.065c0.522,12.483,5.531,24.812,15.04,34.322c1.497,1.497,3.078,2.878,4.718,4.164
			L102.488,449.818z M171.756,415.423c-3.443,3.441-8.019,5.335-12.886,5.335c-4.87,0-9.446-1.896-12.889-5.338
			c-7.107-7.107-7.107-18.67-0.004-25.779c0.001-0.001,0.003-0.002,0.004-0.004l50.533-50.533l25.781,25.781L171.756,415.423z
			 M464.41,368.962l-95.414,95.414l-10.892-10.892l47.708-47.707l-23.605-23.605l-47.708,47.707l-10.891-10.891l23.673-23.674
			l-23.605-23.605l-23.673,23.674l-10.891-10.891l23.673-23.674l-23.605-23.605l-23.673,23.674l-10.892-10.892l47.707-47.707
			l-23.605-23.604L231.01,326.39L220.119,315.5l23.673-23.673l-23.605-23.605l-23.673,23.673l-10.891-10.891l23.673-23.673
			l-23.605-23.605l-23.674,23.673l-10.891-10.891l47.707-47.707l-23.605-23.605l-47.707,47.707l-10.892-10.892l23.674-23.674
			l-23.605-23.605l-23.674,23.673l-10.891-10.891l23.674-23.674l-23.605-23.605l-23.674,23.674l-10.891-10.891l95.414-95.414
			l99.491,99.491l122.377,122.377L464.41,368.962z"/>
	</g>
</g>
</svg>